<svg xmlns="http://www.w3.org/2000/svg" width="17" height="15" viewBox="0 0 17 15">
    <g fill="none" fill-rule="evenodd" stroke-linecap="round" stroke-linejoin="round">
        <g stroke="#FFF" stroke-width="1.25">
            <g>
                <path d="M7.952 12.653c-.118.123-.281.192-.452.192-.17 0-.333-.07-.45-.192L1.107 6.455C-.043 5.305-.329 3.546.399 2.09h0C.943 1.003 1.976.243 3.176.05c1.2-.195 2.421.2 3.28 1.059L7.5 2.152l1.044-1.044c.86-.86 2.08-1.254 3.28-1.06 1.2.195 2.234.955 2.778 2.042h0c.727 1.456.442 3.215-.71 4.365l-5.94 6.198z" transform="translate(-104.000000, -583.000000) translate(105.000000, 584.000000)"/>
            </g>
        </g>
    </g>
</svg>
